<svg xmlns="http://www.w3.org/2000/svg" class="hk-sTab-icon hk-sTab-icon__pw" viewBox="0 0 219.4 164">
					<path fill="#fff" d="M111.7 71.7c-30.8 0-57 19.1-67.7 46.1 10.6 27 36.9 46.1 67.7 46.1s57-19.1 67.7-46.1c-10.7-26.9-36.9-46.1-67.7-46.1zm0 76.9c-17 0-30.8-13.8-30.8-30.8S94.7 87 111.7 87s30.8 13.8 30.8 30.8-13.8 30.8-30.8 30.8zm0-49.2c-10.2 0-18.5 8.2-18.5 18.5s8.2 18.5 18.5 18.5 18.5-8.2 18.5-18.5-8.3-18.5-18.5-18.5z"/>
					<path class="hk-sTab-icon__pw-rays" fill="#fff" d="M34 91.4L0 51.8c4.1-4.5 8.5-8.7 13-12.7l30.2 43.3c-3.2 2.8-6.3 5.9-9.2 9zm153.5-5.2c-3.1-3-6.3-5.8-9.6-8.3l27.9-45.2c4.7 3.7 9.3 7.6 13.6 11.8l-31.9 41.7zM66.2 66.6l-20.4-50c5.2-2.7 10.6-5.1 16.1-7.1l15.5 52.2c-3.7 1.3-7.5 3-11.2 4.9zm87.9-3c-3.7-1.6-7.6-3-11.5-4.2l12.7-53.2c5.5 1.7 11.1 3.7 16.4 6l-17.6 51.4zm-50.2-8.1L99.8.6c4.5-.4 9.1-.6 13.6-.6h3.7L116 55c-4.1 0-8.1.1-12.1.5z"/>
				</svg>