<svg xmlns="http://www.w3.org/2000/svg" class="hk-sTab-icon" viewBox="0 0 32 32">
					<g fill="none" stroke="#FFF" stroke-width="2" stroke-miterlimit="10" stroke-linecap="round">
						<circle cx="16" cy="16" r="5.6"/>
						<path d="M30.4 13.6l-3.5-.2c-1-1.2-1-2.3-2-3.3l3-2V7l-3-3c-.8-.2-1-.2-1 0l-3 2.4c-1-.6-2-1-3.4-1.4V1.5c0-.3 0-.6-.6-.6h-4v4c-1 .2-2.2.6-3.2 1.3L7.5 4h-.8L4 6.8v.8L6.6 10c-.6 1-1 2.2-1.4 3.4l-3.4.2c-.3 0-.6.2-.6.6V18c0 .3.2.6.6.6l3.5.2C5.5 20 6 21 6.6 22L4 24.8v.8l3 2.6c.2.2.6.2.8 0l2.6-2.4c1 .6 2 1 3.3 1.4l.2 3.5v.6h4s.2-.2.2-.6l.2-3.5c1-.3 2-.7 3-1.4l2.3 2.4c.2.2.6.2 1 0l2.6-2.7c.2-.2.2-.6 0-.8L26 22c.5-1 1-2 1.3-3.2l3.5-.2c.3 0 .6-.2.6-.6v-3.8c-.4-.4-.6-.6-1-.6z"/>
					</g>
				</svg>